<?xml version="1.0" encoding="UTF-8"?>
<svg id="Layer_2" data-name="Layer 2" xmlns="http://www.w3.org/2000/svg" viewBox="0 0 120.26 33.45">
  <defs>
    <style>
      .cls-1 {
        fill: #201ab2;
      }

      .cls-1, .cls-2, .cls-3 {
        stroke: #fff;
        stroke-miterlimit: 10;
        stroke-width: .25px;
      }

      .cls-2 {
        fill: #fe0a0a;
      }

      .cls-3 {
        fill: #24d500;
      }
    </style>
  </defs>
  <g id="Layer_1-2" data-name="Layer 1">
    <g>
      <path class="cls-3" d="m27.15,28.85c-.12-.28-.1-.61-.08-.92.09-1.35.18-2.66.09-4.01-.11-1.76-.44-3.52-1.05-5.18-.83-2.26-2.21-4.28-3.86-6.02-.84-.88-1.74-1.69-2.69-2.45-.48-.38-.96-.74-1.46-1.09-.33-.23-1.03-.44-.87-.98.07-.23.26-.4.44-.56.17,0,.67-.59.82-.71.3-.26.59-.52.89-.78.59-.52,1.19-1.04,1.78-1.56,1.14-1,2.27-2,3.42-2.99.25-.21.48-.43.72-.65.07-.06.13-.14.2-.17.07-.03.18-.03.24.01.1.07.2.17.26.28,3.08,4.86,4.87,10.23,4.59,16.05-.02.42-.06.84-.08,1.27-.02.54.52.58.93.58,3.13-.02,6.27.05,9.4.08.1,0,.2,0,.3.04.16.07.21.22.17.38-.08.3-.25.57-.37.85-.15.34-.3.67-.45,1-.21.45-.35,1.1-.96,1.1-.56,0-1.13,0-1.69.02-.43.01-1.01-.09-1.41.13-.24.13-.38.38-.49.63-.18.43-.38.86-.57,1.29-.41.92-.83,1.84-1.24,2.76-.46,1.03-.92,2.06-1.39,3.09-.23.5-.48.99-.68,1.5-.26.65-.36,1.41-1.22,1.38-.77-.03-1.55.01-2.33.03-.14,0-.31-.01-.38-.13-.04-.07-.03-.15-.02-.23.13-.67.65-1.41.93-2.04l1.11-2.51,2.22-5.01c.09-.21.18-.47.04-.66-.09-.12-.25-.16-.4-.19-.5-.1-1.02-.12-1.53-.06-.19.02-.38.05-.53.16-.27.18-.38.52-.47.83-.58,1.91-1.37,3.75-2.35,5.48,0,0,0-.02-.01-.03Z"/>
      <path class="cls-1" d="m.16,16.69c.42.1.72.47,1.06.71.42.29.84.58,1.28.85.86.55,1.75,1.05,2.67,1.5,1.82.88,3.77,1.51,5.79,1.73,4.17.45,8.35-.89,12.12-2.72.87-.42.82,1.03.93,1.61l.67,3.29c.2,1,.41,1.99.61,2.99.19.92.52,1.8.63,2.73.05.39,0,.94-.48.98-5.04.41-10.19-.66-14.65-3.04-2.26-1.21-4.34-2.76-6.16-4.56-.92-.91-1.77-1.89-2.55-2.93-.38-.51-.74-1.03-1.09-1.56-.27-.42-.85-1.08-.87-1.58,0,0,.02,0,.03,0Z"/>
      <path class="cls-2" d="m24.24.36c-.31.61-1.76.94-2.35,1.26-2.63,1.41-5.08,3.24-6.83,5.7-1.3,1.82-2.16,3.92-2.69,6.09-.27,1.09-.45,2.21-.56,3.32-.07.69-.11,1.37-.12,2.07,0,.12,0,.24-.06.34-.13.22-.44.22-.69.18-1.01-.17-2-.62-2.96-.95-1.05-.36-2.11-.72-3.16-1.09-1.42-.49-2.87-.84-4.26-1.41-.13-.05-.26-.11-.32-.23-.07-.13-.03-.29.03-.42C2.63,10.19,6.5,6.01,11.39,3.36c1.99-1.08,4.11-1.9,6.31-2.45,1.88-.47,3.73-.85,5.68-.78.3.01.63.03.87.22Z"/>
      <path class="cls-3" d="m47.82,22.42c-.43,0-.85,0-1.28,0-.4,0-.8-.04-1.19.11-.36.14-.67.41-.84.76-.36.76-.7,1.52-1.03,2.3-.05.12-.09.29.03.39.06.05.14.08.22.1.35.09.74.06,1.11.07.52,0,1.03-.03,1.55-.03.32,0,.41.09.34.4-.02.09-.04.17-.07.26-.22.53-.43,1.08-.69,1.6-.14.28-.24.58-.36.87-.11.26-.29.41-.59.41-.75,0-1.5,0-2.25,0-.2,0-.4.01-.59,0-.26-.02-.44.1-.55.32-.23.48-.46.95-.68,1.43-.15.33-.3.66-.44.99-.11.24-.2.53-.41.71-.23.2-.54.19-.83.17-.68-.03-1.37.02-2.05.03-.58,0-.4-.48-.25-.83.24-.56.48-1.12.72-1.69.48-1.12.96-2.25,1.45-3.36.48-1.11.98-2.22,1.48-3.32.45-1,.89-2.05,1.51-2.96.12-.18.26-.35.4-.51.69-.74,1.6-1.23,2.56-1.5,1.14-.33,2.35-.21,3.53-.2s2.47.01,3.7,0c1,0,2.02-.08,3.02-.01.07,0,.14.03.17.08.02.03.03.07.03.11,0,.15-.07.28-.14.41-.65,1.3-1.17,2.67-1.76,4-.98,2.22-2.02,4.41-2.94,6.65-.23.57-.47,1.14-.72,1.7-.12.29-.25.58-.38.86-.11.24-.16.5-.46.5-.34,0-.69.02-1.03.02-.62.01-1.23.04-1.85.03-.07,0-.15,0-.2-.05-.05-.04-.08-.11-.08-.17-.01-.25.17-.54.26-.76.11-.28.23-.56.34-.84.23-.56.48-1.11.72-1.66.49-1.1.99-2.2,1.49-3.3.04-.09.08-.18.12-.26.25-.57.51-1.14.77-1.7.26-.57.5-1.13.68-1.72.14-.44-.4-.44-.71-.44-.61,0-1.21,0-1.82,0Z"/>
      <path class="cls-3" d="m88.34,33.3c-.32,0-.64,0-.96,0-1.22,0-2.44,0-3.67,0-.74,0-1.49,0-2.23,0-.07,0-.15,0-.2-.05-.03-.03-.04-.08-.04-.12-.02-.24.11-.46.2-.68l.33-.78.4-.95c.05-.12.25-.81.41-.81.1-.08.23-.11.36-.11,1.17-.04,2.35,0,3.53-.01.88,0,1.76,0,2.65,0,.68,0,1.6.17,2.12-.38.31-.32.37-.89.06-1.21-.24-.25-.61-.31-.96-.33-.71-.04-1.42,0-2.13-.02-.68-.01-1.38-.08-1.96-.42-.5-.3-.88-.78-1.1-1.32s-.28-1.14-.23-1.72c.11-1.39.87-2.82,1.85-3.8.51-.51,1.12-.93,1.79-1.2,1.09-.44,2.3-.34,3.45-.35,1.23-.02,2.46-.03,3.69-.04.95,0,1.9,0,2.86.02.07,0,.15,0,.22.03.18.06.2.21.17.38-.03.19-.1.37-.16.55-.11.32-.23.64-.35.96-.17.44-.33.95-.64,1.31-.19.16-.44.13-.68.14-.62.02-1.23.03-1.85.04-.97.02-1.94.03-2.92.03-.91,0-1.87-.12-2.76.13-.24.07-.49.18-.63.39-.1.15-.14.34-.14.53,0,.16,0,.33.08.47.11.2.32.33.54.39.34.09.74.07,1.09.07.4,0,.8-.02,1.2-.02.56,0,1.12.04,1.66.21.78.24,1.54.93,1.81,1.7.14.39.18.81.17,1.22-.02.86-.26,1.72-.65,2.49-.41.81-.97,1.56-1.68,2.13-.76.61-1.64.99-2.61,1.08-.7.07-1.4.09-2.1.09Z"/>
      <path class="cls-3" d="m105.67,24.37c.64,0,1.28,0,1.93,0,.06,0,.12,0,.18,0,.51.01.77-.27.96-.71.51-1.17,1.04-2.34,1.57-3.5.14-.31.3-.98.64-1.12.4-.17.98-.06,1.4-.06.47,0,.95-.03,1.42-.03.77,0,.25.74.09,1.12l-.99,2.27c-1.29,2.96-2.59,5.92-3.89,8.88-.24.55-.48,1.09-.73,1.64-.15.32-.36.41-.71.41-.85,0-1.72.1-2.57,0-.27-.03-.31-.23-.21-.46.32-.8.7-1.57,1.06-2.34.19-.4.37-.81.54-1.22.11-.26.27-.52.32-.8.03-.16,0-.35-.12-.46-.06-.05-.14-.08-.22-.1-.34-.08-.7-.03-1.05-.03-.37,0-.75,0-1.12,0-.54,0-1.07,0-1.61.02-.41.02-.9-.12-1.25.14-.4.3-.61,1.03-.81,1.47-.08.33-.3.68-.44.99-.15.34-.31.69-.46,1.03s-.31.69-.46,1.03c-.11.25-.19.61-.48.72-.09.03-.18.03-.27.03-.77,0-1.54,0-2.31,0-.18,0-.6.09-.66-.15-.05-.17.14-.41.2-.55.16-.38.33-.75.49-1.13.33-.75.65-1.5.98-2.25.66-1.5,1.32-3,1.98-4.49.48-1.04.93-2.1,1.4-3.14.23-.52.47-1.05.7-1.57.13-.29.19-.7.46-.91.17-.14.41-.16.63-.15.73.03,1.46-.01,2.19-.03.18,0,.39.01.47.17.04.08.03.17.02.25-.07.42-.32.78-.48,1.17-.38.94-.8,1.87-1.25,2.79-.14.27-.48.91.01,1,.18.04.37.06.56.06.63,0,1.26,0,1.9,0Z"/>
      <path class="cls-3" d="m63.71,33.27c-.49,0-.98,0-1.46,0-.07,0-.15,0-.21-.04-.1-.05-.16-.15-.18-.26-.08-.42.15-.86.21-1.27.06-.44.09-.89.01-1.33-.18-1.04-1.02-2.07-2.05-2.38-.31-.09-.63-.12-.96-.12-.3,0-.63-.03-.93,0-.19.02-.38.07-.52.19-.25.2-.32.53-.44.81-.15.35-.3.7-.46,1.04-.32.73-.66,1.46-.99,2.2-.19.43-.38,1.17-.97,1.18-.89,0-1.8.08-2.69.03-.23-.01-.28-.08-.21-.3.22-.72.58-1.4.89-2.09l1-2.26,1.99-4.52c.38-1.01.88-1.99,1.32-2.98.18-.4.36-.8.53-1.21.13-.31.22-.67.51-.87.22-.16.52-.18.79-.17.73.04,1.46.03,2.19.03.71,0-.03,1.11-.16,1.42-.34.79-.69,1.58-1.05,2.36-.26.56-.52,1.12-.62,1.72s.62.04.78-.09c.27-.21.51-.44.76-.66l1.84-1.57,1.98-1.69,1.01-.86c.27-.23.57-.62.95-.62,1.15-.02,2.29-.01,3.44-.02.05,0,.1,0,.15.01.12.03.15.13.06.23-.26.29-.63.53-.93.78-.36.3-.72.61-1.09.91-.74.62-1.47,1.24-2.21,1.86-.56.48-1.13.95-1.69,1.43-.29.25-1.06.63-.95,1.1.03.13.13.23.24.31,1.08.8,1.85,2.08,2.13,3.38.18.83.16,1.7.06,2.54-.05.43-.12.85-.19,1.27-.06.33-.05.51-.43.51-.49,0-.99,0-1.48,0Z"/>
      <path class="cls-3" d="m110.64,33.07c-.05-.22.12-.46.2-.65.12-.28.24-.57.36-.85.43-1,.88-1.98,1.32-2.97l1.99-4.51c.4-.9.82-1.8,1.22-2.7.2-.45.39-.9.58-1.36.14-.34.23-.82.61-.98.12-.05.24-.06.37-.07.52-.03,1.04-.04,1.57-.04.28,0,1.05-.13,1.24.16.09.14.02.32-.04.47-1.33,2.96-2.63,5.93-3.95,8.9-.07,0-.39.88-.43.98-.14.33-.29.66-.43.98-.22.5-.45,1.03-.66,1.55-.15.35-.31,1.16-.81,1.16-.56.08-1.12.09-1.68.08-.42,0-.83.06-1.25-.02-.07-.01-.15-.04-.18-.1,0,0,0-.02,0-.03Z"/>
      <path class="cls-3" d="m77.05,22.41c-.43,0-.85,0-1.28,0-.4,0-.8-.04-1.19.11-.36.14-.67.41-.84.76-.36.76-.7,1.52-1.03,2.3-.05.12-.09.29.03.39.06.05.14.08.22.1.35.09.74.06,1.11.07.52,0,1.03-.03,1.55-.03.32,0,.41.09.34.4-.02.09-.04.17-.07.26-.22.53-.43,1.08-.69,1.6-.14.28-.24.58-.36.87-.11.26-.29.41-.59.41-.75,0-1.5,0-2.25,0-.2,0-.4.01-.59,0-.26-.02-.44.1-.55.32-.23.48-.46.95-.68,1.43-.15.33-.3.66-.44.99-.11.24-.2.53-.41.71-.23.2-.54.19-.83.17-.68-.03-1.37.02-2.05.03-.58,0-.4-.48-.25-.83.24-.56.48-1.12.72-1.69.48-1.12.96-2.25,1.45-3.36.48-1.11.98-2.22,1.48-3.32.45-1,.89-2.05,1.51-2.96.12-.18.26-.35.4-.51.69-.74,1.6-1.23,2.56-1.5,1.14-.33,2.35-.21,3.53-.2s2.47.01,3.7,0c1,0,2.02-.08,3.02-.01.07,0,.14.03.17.08.02.03.03.07.03.11,0,.15-.07.28-.14.41-.65,1.3-1.17,2.67-1.76,4-.98,2.22-2.02,4.41-2.94,6.65-.23.57-.47,1.14-.72,1.7-.12.29-.25.58-.38.86-.11.24-.16.5-.46.5-.34,0-.69.02-1.03.02-.62.01-1.23.04-1.85.03-.07,0-.15,0-.2-.05-.05-.04-.08-.11-.08-.17-.01-.25.17-.54.26-.76.11-.28.23-.56.34-.84.23-.56.48-1.11.72-1.66.49-1.1.99-2.2,1.49-3.3.04-.09.08-.18.12-.26.25-.57.51-1.14.77-1.7.26-.57.5-1.13.68-1.72.14-.44-.4-.44-.71-.44-.61,0-1.21,0-1.82,0Z"/>
    </g>
  </g>
</svg>